<svg width="300" height="300" viewBox="0 0 300 300" fill="none" xmlns="http://www.w3.org/2000/svg">
<path fill-rule="evenodd" clip-rule="evenodd" d="M150 0C153.26 0.000629971 156.43 1.06297 159.032 3.02606C161.634 4.98916 163.526 7.74633 164.421 10.8803L180.683 67.8022C184.184 80.0614 190.751 91.2256 199.767 100.24C208.782 109.255 219.947 115.823 232.207 119.324L289.13 135.585C292.263 136.482 295.017 138.375 296.979 140.976C298.939 143.578 300 146.747 300 150.005C300 153.263 298.939 156.433 296.979 159.035C295.017 161.636 292.263 163.528 289.13 164.426L232.207 180.687C219.947 184.187 208.782 190.756 199.767 199.771C190.751 208.785 184.184 219.95 180.683 232.208L164.421 289.13C163.524 292.262 161.631 295.017 159.029 296.978C156.428 298.939 153.259 300 150 300C146.742 300 143.572 298.939 140.971 296.978C138.369 295.017 136.476 292.262 135.58 289.13L119.318 232.208C115.817 219.95 109.249 208.785 100.233 199.771C91.2178 190.756 80.0533 184.187 67.7941 180.687L10.8699 164.426C7.73784 163.528 4.98298 161.636 3.02186 159.035C1.06074 156.433 0 153.263 0 150.005C0 146.747 1.06074 143.578 3.02186 140.976C4.98298 138.375 7.73784 136.482 10.8699 135.585L67.7941 119.324C80.0533 115.823 91.2178 109.255 100.233 100.24C109.249 91.2256 115.817 80.0614 119.318 67.8022L135.58 10.8803C136.474 7.74633 138.366 4.98916 140.968 3.02606C143.57 1.06297 146.74 0.000629971 150 0Z" fill="url(#paint0_linear_149_97)"/>
<defs>
<linearGradient id="paint0_linear_149_97" x1="115.515" y1="153.692" x2="590.7" y2="155.267" gradientUnits="userSpaceOnUse">
<stop stop-color="#735CDD"/>
<stop offset="1" stop-color="#00A7E1"/>
</linearGradient>
</defs>
</svg>
