<svg width="11134" height="7638" viewBox="0 0 11134 7638" fill="none" xmlns="http://www.w3.org/2000/svg">
<g clip-path="url(#clip0_249_96)">
<path d="M1975.71 5498.62C2015.61 5487.06 2013.61 5528.07 1981.21 5525.11C1952.96 5528.91 1958.19 5505.13 1975.71 5498.62ZM1993.29 5406.49C2034.41 5411.74 2004.27 5450.4 1971.07 5441.08C1940.11 5430.81 1973.78 5410.48 1993.29 5406.49ZM1909.22 5290.74C1985.61 5294.22 1889.68 5376.07 1851.95 5335.19C1844.3 5312.36 1888.89 5301.85 1909.22 5290.74ZM1873.92 5185.17C1928.67 5182.29 1884.04 5248.78 1840.27 5226.05C1803.58 5210.41 1850.76 5190.27 1873.92 5185.17ZM3492.01 5161.49C3548.98 5229.15 3548.41 5317.91 3542.5 5393.56C3507.93 5397.76 3513.88 5358.21 3509.25 5340.77C3472.32 5320.54 3504.72 5281.52 3497.91 5255.69C3489.4 5226.52 3477.8 5187.92 3492.01 5161.49ZM9703.83 5261.67C9724.93 5255.95 9751.98 5276.81 9734.91 5289.52C9712.3 5306.24 9664.31 5267.17 9703.83 5261.67ZM1786.27 4920.37C1824.56 4916.07 1789.79 4945.35 1781.45 4954.98C1756.03 4952.22 1761.07 4920.73 1786.27 4920.37ZM9726.56 5110.82C9754.39 5102.88 9787.68 5136.96 9753.03 5144.89C9711.69 5159.16 9676.29 5114.63 9726.56 5110.82ZM9730.11 5017.34C9758.35 5012.11 9801.89 5039.61 9769.5 5055.68C9750.51 5086.45 9677.93 5027.23 9730.11 5017.34ZM3412.68 4698.7C3460.85 4713.14 3451.83 4768.38 3464.16 4800.67C3460.85 4877.9 3511.86 4954.64 3500.41 5030.69C3480.01 5066.39 3449.96 5042.73 3465.59 5014.84C3431.87 4910.77 3426.75 4803.92 3412.68 4698.7ZM1850.68 4669.83C1871.76 4663.17 1900.74 4678.54 1876.54 4689.1C1860.63 4707.6 1825.71 4678.33 1850.68 4669.83ZM1721.83 4657.04C1755.04 4653.03 1752.23 4686.62 1721.42 4686.4C1685.68 4693.52 1692.03 4656.98 1721.83 4657.04ZM9733.75 4861.51C9753.74 4860.23 9789.86 4874.4 9772.29 4890.48C9739.63 4901.2 9679.41 4873.5 9733.75 4861.51ZM9741.3 4659.64C9767.12 4654.28 9796.42 4683.39 9772.59 4696.21C9740.27 4711.69 9695.63 4663.88 9741.3 4659.64ZM1686.46 4345.17C1756.56 4348.09 1691.24 4411.67 1640.17 4381.68C1580.67 4369.18 1655.34 4337.9 1686.46 4345.17ZM9738.2 4554.8C9756.66 4553.78 9798.25 4566.39 9772.09 4579.91C9751.75 4599.12 9701.25 4562.58 9738.2 4554.8ZM9755.81 4376.43C9773.55 4371.87 9795.29 4397.88 9769.72 4399.28C9749.57 4403.52 9729.25 4378.69 9755.81 4376.43ZM1663.73 4063.77C1697.05 4056.5 1699.95 4105.89 1657.99 4089.41C1637.35 4083.43 1641.79 4064.49 1663.73 4063.77ZM9798.39 4125.2C9818.1 4122.08 9829.35 4140.52 9811.83 4146.8C9779.9 4160.89 9766.95 4121.89 9798.39 4125.2ZM9872.44 4023.03C9934.78 4017.15 9875.98 4076.56 9838.77 4056.28C9797.42 4043.13 9851.95 4027.17 9872.44 4023.03ZM9778.24 3987.45C9796.69 3986.77 9822.4 3986.23 9836.03 3997.48C9838.17 4026.65 9722.89 4005.82 9778.24 3987.45ZM2177.48 3673.51C2193.15 3674.91 2205.08 3686.38 2209.24 3696.56C2187.68 3718.41 2131.78 3683.24 2177.48 3673.51ZM2026.54 3559.2C2056.95 3548.28 2086.36 3577.16 2047.19 3580.77C2018.53 3596.57 1985.72 3566.48 2026.54 3559.2ZM9879.64 3745.71C9959.92 3755.47 9835.42 3781 9879.64 3745.71ZM1385.85 3304.3C1440.66 3315.86 1356.2 3362.79 1327.11 3334.31C1322.49 3310.22 1360.1 3307.57 1385.85 3304.3ZM9916.05 3525.93C9979.61 3525.59 9900.65 3545.74 9916.05 3525.93ZM3221.82 3284.93C3274.7 3277.48 3256.32 3331.11 3239.9 3348.08C3192.67 3358.29 3168.08 3289.75 3221.82 3284.93ZM9975.58 3434.49C10009.6 3427.43 10021.6 3475.62 9974.44 3460.83C9949.54 3458.99 9953.43 3436.6 9975.58 3434.49ZM1384.3 3187.35C1428.49 3191.65 1382.97 3244.68 1345.98 3221.37C1348 3210.39 1350.04 3185.96 1384.3 3187.35ZM3192.1 3111.56C3239.55 3111.31 3258.04 3188.4 3201.02 3185.31C3176.83 3168.09 3162.95 3128.35 3192.1 3111.56ZM1972.36 2969.76C1997.14 2974.71 2007.89 3002.67 2041.46 3007.61C2031.67 3054.11 1904.44 2993.26 1972.36 2969.76ZM1934.87 2913.99C1969.61 2916.02 2013.2 2918.2 2038.16 2937.67C2027.9 2970.03 1903.17 2942.52 1934.87 2913.99ZM1932.34 2820.3C1972.94 2825.72 2052.43 2836.94 2043.03 2872.29C2009.11 2869.16 1886.07 2853 1932.34 2820.3ZM3206.28 2826.54C3258.74 2831.14 3149.57 2837.21 3162.53 2866.33C3143.17 2920.39 3215.62 2970.42 3189.33 3023.19C3145.45 3039.05 3129.56 3006.82 3136.56 2983.8C3061.07 2957.87 3229.43 2936.36 3195.88 2890.49C3175.48 2869.74 3180.59 2842.61 3206.28 2826.54ZM10038.1 2911.76C10070.3 2916.93 10061.3 2957.15 10024.5 2953.07C9992.28 2945.06 10014.3 2915.83 10038.1 2911.76ZM6280.54 2737.33C6311.16 2739.72 6324.49 2785.74 6288.97 2791.19C6257.37 2784.56 6265.81 2751.13 6280.54 2737.33ZM1166.1 2525.74C1212.62 2508.69 1222.46 2557.39 1180.99 2559.25C1145.29 2573.13 1136.58 2525.79 1166.1 2525.74ZM3178.13 2584.05C3247.64 2593.95 3197.15 2649.26 3218.63 2680.94C3159.04 2714.49 3086.01 2589.05 3178.13 2584.05ZM6254.15 2591.3C6319.84 2586.32 6285.05 2643.73 6263.24 2661.72C6210.45 2659.99 6226.22 2607.09 6254.15 2591.3ZM1922.14 2462.19C1944.28 2467.09 1964.66 2478.81 1991.76 2472.21C2006.63 2525.68 1851.97 2498.45 1922.14 2462.19ZM1162.63 2420.38C1194.27 2417.71 1196.51 2455.14 1164.26 2454.25C1131.54 2457.11 1132.83 2421.83 1162.63 2420.38ZM6258.71 2433.36C6295.05 2430.11 6268.13 2473.21 6253.36 2478.26C6206.52 2479.07 6217.9 2435.32 6258.71 2433.36ZM3130.85 2368.01C3200.07 2376.89 3142.66 2447.9 3178.49 2480.2C3209.39 2508.47 3140.53 2523.38 3119.72 2498.1C3106.4 2455.16 3085.27 2403.65 3130.85 2368.01ZM10092.3 2501.02C10119 2489.34 10146.5 2531.27 10113.3 2533.14C10086.6 2544.51 10070.8 2509.33 10092.3 2501.02ZM6233.58 2307.49C6267.58 2306.73 6274.97 2346.74 6262.6 2362.07C6220.7 2368.19 6218.31 2325.39 6233.58 2307.49ZM1077.12 2153.64C1119.81 2144.55 1132.28 2184.31 1086.03 2180.99C1038.11 2199.62 1036.04 2149.25 1077.12 2153.64ZM10112.9 2400.82C10139.8 2396.36 10156.6 2431.45 10128.2 2437.22C10098.8 2449.04 10079.4 2400.59 10112.9 2400.82ZM9939.56 2394.61C9964.33 2385.48 9949.74 2409.48 9939.56 2394.61ZM10146.3 2262.17C10182.9 2257.27 10175.7 2300 10140.4 2292.66C10145.9 2278.54 10112.4 2267.1 10146.3 2262.17ZM1138.61 1983.64C1170.87 1977.77 1183.49 2015.05 1147.76 2015.24C1110.79 2028.5 1100.25 1985.03 1138.61 1983.64ZM10057.9 2211.86C10079.1 2206.88 10099.9 2229.2 10090.5 2241.05C10068.2 2246.8 10024.1 2224.49 10057.9 2211.86ZM1141.28 1875C1210.47 1868.2 1130 1928.49 1141.28 1875ZM10116.8 1961.24C10156.7 1954.08 10153 1994.64 10123.8 1999.42C10093.8 1998.64 10088 1965.96 10116.8 1961.24ZM10086.8 1823.84C10113.2 1821.19 10132.6 1844.78 10105.6 1854.14C10084.5 1853.17 10051 1830.92 10086.8 1823.84ZM10248.7 1604.17C10276.9 1590.3 10315.9 1623.91 10280.9 1633.46C10252.4 1659.47 10212.1 1616.24 10248.7 1604.17ZM10035.7 1593.35C10067.5 1596.41 10156.4 1581.34 10143.1 1622.54C10099.3 1624.13 10056.1 1626.74 10013.8 1633.98C9978.85 1624.35 10001.5 1588.3 10035.7 1593.35ZM10404.5 355.941L10449.7 357.519C10494.7 366.248 10509.1 401.999 10527.8 427.587C10560.2 503.567 10581.5 596.12 10509.7 662.55C10588.7 691.177 10666.3 750.919 10650.9 815.427C10631.4 861.545 10555.6 872.552 10501.8 892.769C10571.6 931.347 10649 967.313 10699.5 1020.23C10777.7 1074.74 10751.1 1171.58 10852.3 1214.36C10904.1 1236.98 10890.1 1285.59 10871 1317.8C10832.8 1344.82 10758.8 1338.04 10722.5 1362.21C10873.6 1422.92 11076 1480.14 11090.2 1618.81L11088.9 1653.43C11060.2 1704.79 10991.2 1758.87 10905.9 1753.24C10880.2 1807.9 10901.5 1868.83 10894 1925.63C10865.7 2124.02 10877.4 2323.61 10831.7 2520.26C10820 2803.06 10744.3 3081.14 10718.1 3362.62C10677.1 3610.24 10607.1 3854.21 10585.4 4103.75C10535.3 4503.59 10493.4 4902.98 10432.4 5302.71C10428.5 5506.11 10377.6 5699.74 10404.5 5902.59C10442.3 5953.93 10549.9 5977.45 10550.3 6044.46C10522.7 6152.42 10341.4 6178.15 10209.5 6195.91C10121.4 6222.83 10016 6189.7 9933.07 6226.52C9854.27 6211.48 9879.34 6298.48 9811.92 6307.64C9739.94 6321.78 9742.77 6381.01 9751.31 6423.71C9777.08 6671.53 9803.54 6925.32 9705.8 7165.32C9680.62 7234.77 9640.07 7305.29 9562.32 7353.81C9521.25 7413.41 9393.31 7421.24 9323.94 7378.16C9261.71 7343.66 9218.59 7292.67 9211.25 7238.07C9139.98 6991.5 9190.14 6736.11 9294.18 6500.88C9326.69 6434.71 9356.8 6366.13 9374.18 6297.69C9328.39 6258.55 9290.43 6216.33 9290.54 6164.67C9138.12 6163.86 8995.7 6087.82 8841.66 6110.8C8059.18 6137.62 7276.31 6183.93 6491.93 6180.07C6201.22 6180.11 5915.37 6218.53 5622.91 6208.82C5304.57 6200 4983.39 6204.42 4668.72 6156.71C4399.16 6118.74 4124.04 6108.04 3856.96 6060.71C3769.06 6046.28 3684.12 6078.02 3595.92 6067.62C3417.77 6059.81 3238.61 6058.33 3062.14 6034.59C2939.09 6018.78 2930.7 6029.69 2804.62 6028.05C2678.84 6080.57 2541.11 6128.28 2394.11 6146.37C2360.46 6153.36 2362.23 6107.6 2334.17 6130.19C2364.32 6202.48 2292.69 6269.26 2222.73 6314.08C2238.36 6308.48 2262.43 6298.43 2273.76 6314.46C2393.65 6461.35 2437.74 6628.18 2509.67 6786.69C2523.35 6880.62 2576.92 6974.45 2551.31 7068.83C2574.14 7129.89 2542.8 7188.23 2527.46 7246.83C2507.53 7314.29 2405.25 7327.72 2322.24 7338.24L2296.92 7337.36C2202.41 7317.06 2144.36 7249.99 2109.02 7187.44C2050.93 7122.97 2020.54 7049.44 1993.56 6976.84C1908.9 6761.67 1879.55 6538.98 1886.19 6318.13C1778.78 6288.39 1731.92 6184.75 1830.84 6133.23C1712.13 6154.34 1588.09 6155.45 1466.18 6163.25C1343.22 6125.46 1165.34 6143.76 1096.58 6046.2C1046.16 6004.02 1108.72 5958.32 1139.07 5923.16C1256.04 5855.2 1407.35 5831.35 1544.24 5789.83C1537.73 5785.75 1529.47 5783.64 1521.6 5781.49C1904.63 5714.3 2307.41 5691.25 2702.02 5700.52C2650.94 5643.61 2674.1 5572.53 2646.46 5510.49C2620.25 5459.23 2623.51 5404.61 2606.62 5352.59C2585.55 5351.04 2559.18 5364.05 2541.78 5352.51C2537.88 5326.93 2577.07 5316.28 2591.78 5296.75C2547.68 5172.24 2527.03 5044.15 2510.95 4917.2C2430.75 4800.26 2484.08 4652.58 2401.53 4546.53C2448.95 4527.76 2406.85 4484.51 2405.65 4452.76C2372.98 4457.38 2317.62 4453.42 2332.09 4419.85C2390.42 4387.07 2390.73 4310.52 2313.98 4286.6C2285.32 4255.49 2375.73 4260.86 2358.32 4231.97C2294.71 4080.21 2280.86 3921.86 2255.99 3766.12C2200.01 3623.57 2191.5 3475.25 2154.13 3330.39C2114.56 3347.06 2067.38 3326.97 2024.16 3330.25C1991.69 3287.3 2122.34 3295.28 2152.53 3316.72C2115.01 3155.37 2100.12 2992.66 2079.99 2830.43C2041.52 2699.43 2030.66 2566.66 2029.38 2434C2041.13 2384.73 1937.51 2434.88 1922.08 2391.2C1945.31 2364.93 1993.63 2402.56 2023.97 2383.94C2029.49 2316.17 2014.44 2248.54 1986.98 2183.23C1965.07 2171.65 1937.57 2166.96 1914.55 2156.7C1907.6 2131.48 1952.81 2135.55 1975.08 2139.87C1967.81 2093.24 1954.78 2047.04 1946.71 2000.66C1902.83 1977.57 1842.09 1974.64 1789.61 1970.74C1770.49 1909.85 1911.15 1955.73 1941.91 1949.29C1956.07 1900.34 1882.34 1909.52 1840.5 1892.88C1812.05 1887.85 1763.22 1906.76 1764.11 1873.33C1810 1853.15 1866.35 1860.64 1917.81 1864.93C1916.55 1846.13 1915.52 1827.19 1909.24 1808.77C1877.78 1818.99 1812.95 1812.06 1815.13 1781.87C1842.3 1760.56 1878.7 1791.17 1906.72 1798.56C1903.23 1777.63 1901.59 1756.56 1898.72 1735.65C1841.5 1735.13 1787.45 1717.92 1730.13 1716.96C1703.36 1713.89 1661.45 1716.94 1651.45 1693.52C1726.45 1677.04 1810.73 1704.68 1888.54 1704.45C1888.05 1682.95 1885.42 1661.5 1882.05 1640.19C1838.04 1651.68 1791.53 1631.58 1751.77 1618.32C1763.14 1573.63 1847.25 1628.47 1879.04 1620.08C1894.56 1583.79 1842.68 1560.85 1797.85 1553.99C1524.88 1473.58 1230.32 1525.85 948.8 1523.99C812.523 1544.75 672.492 1561.73 546.949 1604.22C526.302 1616.3 545.275 1661.86 576.904 1646.66C689.821 1597.89 827.13 1586.27 957.747 1574.3C980.909 1572.5 1047.85 1570.56 1040.93 1597.74C874.768 1586.96 714.522 1643.96 578.787 1704.07C561.857 1708.11 563.326 1725.74 575.922 1732.87C726.43 1683.7 889.401 1648.7 1058.36 1645.42C1073.61 1642.69 1067.82 1653.81 1067.1 1659.97C927.205 1663.21 797.071 1703.29 673.843 1742.44C625.186 1754.78 603.204 1785.72 596.556 1819.61C745.889 1766.97 909.031 1727.08 1078.03 1716.29C1108.1 1711.93 1089.61 1746.14 1062.92 1732.72C909.441 1757.28 760.137 1797.78 627.048 1854.71C605.316 1862.36 586.706 1893.53 614.71 1901.51C777.774 1860.64 937.155 1802.6 1114.7 1795.45C1140.26 1789.5 1134.35 1826.4 1104.79 1811.45C934.552 1830.36 774.646 1882.43 631.742 1946.18C609.856 1950.16 585.275 1986.14 624.082 1976.76C741.698 1935.39 880.426 1931.52 995.729 1888.63C1028.54 1884.72 1113.07 1868.07 1097.71 1909.43C944.049 1935.92 776.38 1965.08 652.341 2029.06C787.139 2031.28 934.045 1962.65 1080.93 1988.09C1099.59 2008.69 1047.26 2003.6 1033.19 2009.8C894.595 2025.93 764.136 2064.01 641.383 2108.93C625.27 2112.14 629.536 2133.57 655.701 2119.98C801.995 2096.3 952.094 2086.29 1102.24 2079.63C1120.64 2083.73 1144.78 2100.53 1124.1 2112.14C967.729 2119.32 805.377 2120.46 659.251 2161.92C629.664 2165.4 634.681 2212.1 667.486 2200.37C773.383 2170.3 890.344 2162.17 1004.4 2158.26C1004.28 2195.44 920.446 2185.9 881.67 2195.99C798.779 2199.7 726.66 2228.89 660.284 2259.8C659.041 2269.56 661.71 2294.78 682.492 2286.91C810.79 2246.18 954.801 2229.78 1096.34 2230.91C1132.46 2240.46 1090.65 2269.61 1064.61 2260.34C924.299 2265.94 810.493 2317.6 691.148 2361.71C670.916 2366.72 671.455 2396.46 697.771 2389.83C829.83 2373.71 964.33 2300.56 1100.32 2349.19C1126.59 2340.85 1138.48 2368.15 1122.06 2373.57C992.819 2384.97 853.039 2386.7 738.749 2432.85C692.246 2423.84 676.34 2482.45 711.999 2488.99C818.427 2446.96 938.926 2421.4 1063.49 2421.59C1078.34 2422.15 1098.61 2438.73 1078.44 2444.95C1029.2 2482.05 912.229 2447 893.326 2507.54C863.803 2565.68 703.072 2517.15 717.24 2588.99C842.832 2575.72 968.917 2530.6 1100.26 2544.6C1138.78 2570.96 1056.73 2569.81 1036.01 2569.63C937.934 2565.97 876.369 2626.92 783.69 2636.64C745.422 2638.65 731.831 2666.45 758.519 2684.66C903.789 2649.97 1060.38 2625.06 1216.45 2629.46C1230.44 2643.6 1205.53 2653.47 1188.32 2656.02C1106.09 2668.2 1019.77 2670.05 939.826 2687.64C928.586 2735.26 839.983 2736.36 784.967 2745.26C758.965 2744.51 763.973 2772.11 783.13 2775.27C913.885 2762.6 1042.41 2739.58 1173.5 2728.56C1197.27 2723.75 1219.09 2742.8 1199.04 2755.32C1103.01 2761.19 1011.86 2783.64 919.858 2801.28C894.7 2832.81 842.869 2845.7 792.609 2836.17C764.315 2838.14 783.288 2888.52 816.741 2877.59C949.807 2851.97 1087.22 2824.48 1228.17 2831.19C1256.36 2830.69 1254.22 2864.35 1225.39 2859.3C1065.48 2846.9 928.999 2905.74 798.284 2955.99C799.333 2969.53 816.647 2985.15 837.346 2976.42C970.725 2937 1121.34 2944.36 1263.5 2939.13C1284.42 2877.35 1359.3 2951.39 1309.33 2973.95C1219.72 2974.64 1127.53 2964.03 1040.52 2983.9C972.774 2984.8 934.026 3031.22 868.13 3035.46C864.083 3052.94 815.083 3046.05 825.046 3067.29C961.698 3058.37 1096.74 3019.67 1237.61 3038.36C1270.49 3047.1 1298.46 3033.52 1325.77 3024.25C1347.56 3039.13 1404.31 3045.08 1387.68 3072.74C1321.55 3083.66 1254.76 3073.23 1189.71 3062.91C1067.65 3065.53 918.124 3088.09 848.163 3158.74C1009.39 3122.05 1181.41 3132.99 1346.74 3123.95C1389.25 3135.82 1355.19 3175.52 1315.46 3164.44C1212.95 3165.37 1060.76 3130.42 999.438 3200.55C967.838 3216.49 891.077 3209.22 892.446 3241.01C1021.58 3237.51 1149.74 3205.65 1281.37 3217.87C1301.52 3220.17 1316.1 3235.11 1302.88 3247.45C1167.08 3244.81 1031.6 3263.73 905.247 3293.9C913.518 3308.74 923.153 3339.34 954.463 3330.09C1059.92 3304.67 1174.33 3285.6 1286.9 3306.49C1304.41 3316.55 1329.72 3346.81 1293.27 3351.37C1226.49 3348.84 1157.88 3348.39 1093.23 3360.53C1107.83 3407.29 986.462 3422.08 931.473 3420.55C883.718 3402.19 905.497 3448.08 932.723 3441.21C1088.97 3421.19 1249.49 3411.31 1408.39 3426.89C1420.99 3433.87 1410.54 3452.22 1390.81 3447.83C1246.61 3450.15 1093.67 3460.99 961.543 3490.34C996.42 3512.84 1055.57 3482.22 1100.37 3483.52C1091.39 3531.09 973.749 3500.57 958.317 3535.94C1096.66 3515.6 1240.49 3506.23 1382.81 3514C1406.06 3514.34 1444.63 3532.73 1416.74 3547.36C1264 3534.59 1115.5 3558.66 974.729 3593.5C960.745 3601.92 958.856 3635.04 988.202 3630.39C1114.77 3619.94 1240.2 3591.72 1369.84 3606.29C1395.67 3608.75 1432.51 3615.28 1415.59 3640.14C1319.07 3625.87 1201.46 3628.26 1136.83 3685.22C1106.45 3717.61 957.933 3692.12 991.535 3739.86C1139.6 3705.77 1302.25 3696.21 1458.15 3713.63C1482.52 3714.4 1479.27 3739.66 1456.3 3739.16C1376.86 3736.08 1293.4 3731.8 1217.26 3748.52C1156.13 3787.5 1085.9 3818.86 1007.66 3839.58C1119.07 3824.33 1234.01 3799.75 1352.25 3809.87C1391.77 3812.3 1456.5 3798.07 1473.84 3830.65C1352.97 3847.44 1210.89 3834.35 1103.72 3879.78C1141.96 3880.34 1174.22 3861.39 1211.06 3861.66C1203.61 3908.71 1098.71 3902.24 1046.18 3915.74C1008.84 3915.48 1026.55 3955.08 1060.7 3943.55C1193.4 3920.41 1341.01 3894.52 1477.62 3925.71C1504.96 3928.45 1497.61 3951.81 1473.31 3952.13C1355.14 3961.11 1235.17 3974.54 1132.9 4017.03C1104.46 4028.02 1030.8 4022.26 1060.17 4057.13C1206.58 4051.23 1351.26 4028.7 1497.49 4026.15C1523.37 4025.46 1555.39 4044.39 1526.16 4058.7C1376.48 4082.45 1201.98 4069.94 1075.1 4139.43C1070.86 4146.47 1067.57 4176.12 1091.34 4169.71C1236.21 4133.5 1395.96 4108.65 1550.94 4134.53C1550.05 4140.68 1548.27 4152.99 1547.32 4159.14C1444.83 4156.19 1339.26 4156.16 1243.78 4183.17C1222.97 4228.93 1138.65 4226.69 1094.8 4256.24C1084.03 4261.39 1098.85 4266.14 1106.37 4263.84C1204.95 4241.41 1310.27 4239.25 1413.46 4233.56C1465.6 4231.1 1521.63 4222.05 1569.67 4241.89C1580.95 4219.02 1656.73 4212.57 1629.2 4242.53C1499.56 4274.88 1355.38 4270.32 1219.32 4288.13C1300.76 4332.64 1063.77 4322.14 1121.38 4374.26C1264.87 4347.02 1417.46 4346.44 1565.66 4335.82C1582.97 4337.05 1589.75 4355.76 1571.97 4360.16C1478.28 4379.26 1376.47 4374.84 1283.4 4395.6C1242.62 4422.81 1194.91 4440.24 1157.85 4470.65C1314.9 4448.55 1482.98 4422.17 1641.11 4455.01C1668.72 4454.72 1723.64 4422.72 1720.54 4463.15C1678.52 4504.86 1607.26 4480.39 1550.72 4471.61C1411.5 4480.02 1266.15 4499.25 1151.18 4554.99C1131.34 4627.9 1266.2 4547.81 1312.59 4582.65C1457.09 4568.4 1605.77 4552.08 1751.81 4558.27C1789.34 4592.1 1693.4 4591.94 1662.78 4594.18C1513.12 4590.04 1371.77 4622.18 1229.29 4646.3C1215.19 4651.76 1185.92 4651.01 1184.2 4664.76C1331.11 4689.66 1479.58 4643.95 1627.04 4657.86C1671.62 4667 1638.87 4694.99 1605.16 4685.76C1471.82 4703.13 1326.66 4702.49 1211.28 4757.05C1216.67 4807.73 1294.75 4743.32 1333.79 4740.24C1385.44 4743.95 1287.15 4793.12 1344.98 4777.86C1461.46 4769.06 1588.88 4732.42 1702.5 4766.81C1738.22 4761.95 1797.42 4722.01 1809.13 4765.75C1791.87 4792.26 1712.99 4813.44 1675.3 4785.86C1522.32 4783.24 1375.2 4819.18 1233.22 4853.21C1215.83 4857.5 1221.41 4872.05 1222.22 4882.66C1268.15 4912.97 1337.96 4853.21 1378.26 4886.51C1489.97 4882.05 1601.13 4857.57 1714.88 4864C1753.04 4871.51 1718.36 4901.5 1689.99 4894.33C1533.79 4898.44 1385.19 4933.17 1242.37 4972.02C1265.76 5007.27 1330.02 4941.71 1364.35 4967.14C1350.21 5005.78 1267.92 4997.11 1245.62 5020.92C1401.65 4992.76 1561.62 4958.27 1727.33 4972.27C1748.73 4974.14 1746.43 5001.18 1723.86 4998.95C1568.28 5006.28 1417.04 5034.34 1273.44 5074.41C1250.74 5076.07 1240.82 5110.11 1267.88 5106.31C1321.64 5101.15 1372.85 5081.89 1426.55 5079.76C1461.22 5093.92 1368.01 5109.11 1415.61 5107.5C1546.11 5084.48 1734.07 5040.43 1837.08 5106.07C1870.7 5135.61 1783.59 5147 1778.46 5114.96C1604.08 5120.15 1433.19 5154.41 1272.63 5199.34C1260.14 5268.11 1381.64 5181.67 1414.85 5224.53C1540.06 5215.87 1662.29 5187.46 1788.95 5184.03C1821.84 5187.67 1799.96 5212.38 1780.91 5217.44C1660.6 5239.22 1531.61 5240.09 1417.57 5275.86C1391.51 5288.02 1446.13 5274.25 1437.81 5291.59C1424.65 5310.11 1392.31 5319.76 1374.37 5336.6C1502.44 5304.03 1639.57 5289.68 1776.63 5288.25C1803.33 5288.48 1865.34 5287.45 1839.91 5320.18C1696.19 5329.98 1543.99 5333.92 1416.38 5383.89C1383.03 5396.73 1318.92 5398.31 1316.41 5429.92C1366 5428.08 1400.94 5397.16 1446.34 5385.95C1472.89 5406.48 1376.08 5424.85 1431.59 5422.78C1563.11 5396.29 1703.55 5353.07 1841.85 5395.4C1866.08 5403.45 1931.59 5390.87 1909.51 5426.2C1877.62 5442.21 1837.78 5431.25 1804.53 5421.95C1656.13 5397.83 1531.38 5461.04 1392.76 5481.22C1365.6 5486.18 1322.65 5493.28 1334.87 5520.94C1375.83 5525.6 1387.06 5479.85 1428.37 5487.44C1448.85 5494.89 1437.84 5511.58 1431.71 5522.49C1596.83 5487.49 1772.68 5478.96 1943.82 5474.51C1976.52 5473.9 1956.16 5508.32 1936.5 5513.08C1799.02 5515.17 1661.03 5528.48 1530.32 5556.01C1483.12 5583.22 1398.24 5579.33 1374.26 5623.73C1415.31 5616.41 1462.55 5589.86 1500.53 5612C1615.72 5591.82 1747.49 5598.37 1851.42 5560.22C1894.61 5570.6 1939.36 5573.33 1984.3 5573.84C2004.86 5606.07 1954.52 5619.92 1918.2 5611.22C1839.52 5592.91 1768.24 5628.51 1689.17 5626.17C1578.3 5629.11 1492.86 5676.93 1395.77 5704.66C1413.99 5733.15 1471.66 5690.12 1508.94 5708.34C1653.91 5692.01 1797.81 5664.24 1946.31 5661.22C1976.46 5667.44 1949.38 5692.87 1929.97 5695.35C1785.91 5687.36 1655.81 5737.71 1516.7 5752.46C1440.77 5777.85 1373.15 5813.69 1293.51 5834.14C1280.47 5845.9 1249.17 5864.57 1234.34 5844.21C1250.73 5777.95 1241.41 5707.91 1242.18 5642.03C1200.45 5615.8 1220.77 5584.14 1229.15 5553.89C1217.29 5483.61 1213.74 5412.88 1204.7 5342.58C1168.83 5259.75 1157.57 5173.96 1151.2 5088.66C1126.93 5020.47 1099.57 4952.02 1114.26 4881.5C1062.85 4701.65 1038.12 4517.82 990.233 4336.96C963.49 4207.38 921.112 4078.61 915.423 3947.9C923.844 3881 850.619 3822.47 884.711 3754.53C852.786 3705.56 830.23 3652.92 840.16 3599.27C820.73 3520.01 815.308 3439.72 802.319 3359.94C782.527 3299.15 741.362 3234.06 773.172 3173.36C751.171 3151.62 735.459 3127.23 748.373 3101.07C700.347 3048.54 725.198 2982.23 706.209 2924.22C662.403 2744.4 631.004 2564.24 589.256 2385.19C561.021 2261.23 564.192 2134.91 526.625 2011.99C487.479 1977.83 511.386 1933.73 491.509 1894.72C468.935 1847.4 476.822 1797.41 460.129 1749.49C340.796 1762.59 208.952 1690.3 197.332 1605.2L198.047 1584.72C269.755 1433.41 531.076 1389.24 730.302 1351.81C695.685 1331.53 622.482 1328.86 606.858 1287.43C594.771 1247.95 520.376 1261.65 499.793 1228.33C489.918 1178.78 570.556 1160.55 617.532 1138.26C657.302 1031.93 747.948 936.827 864.873 863.61C738.521 824.419 779.511 700.896 890.406 669.678C899.686 629.816 848.657 587.458 870.321 544.644C873.307 473.674 890.302 338.692 1034.77 359.336C1139.32 428.927 1170.44 533.3 1183.38 629.024C1312.73 645.368 1412.34 754.778 1323.3 833.13C1463.27 870.969 1593.73 953.835 1637.75 1056.71C1673.17 1068.49 1720.31 1065.67 1741.59 1093.48C1797.31 1148.26 1716.86 1206.49 1663.3 1241.34C1646.88 1253.49 1585.64 1264.54 1591.13 1236.53C1649.47 1217.98 1693.13 1177.57 1693.9 1131.42C1680.58 1096.72 1614.29 1096.08 1576.5 1081.26C1524.87 1006.05 1441.51 939.261 1336.99 895.891C1244.23 856.473 1131.51 865.686 1030.53 874.297C1051.78 914.214 928.196 881.421 931.214 915.995C968.24 920.516 1009.08 899.729 1043.01 913.752C1035.91 966.956 884.743 925.42 879.194 976.227C928.304 979.965 984.872 965.329 1028.76 978.338C1024.37 1025.02 895.276 983.558 883.331 1023.95C930.814 1024.25 977.898 1018.23 1025.57 1021.06C1049.04 1041.29 1008.34 1054.89 1000.38 1071.41C1048.18 1080.36 1094.28 1063.88 1141.92 1064.34C1187.11 1065.76 1252.51 1059.79 1263.75 1023.35C1275.76 987.547 1181.48 973.79 1215.49 938.876C1194.88 938.623 1177.19 917.621 1202.88 914.433C1316.28 924.229 1447.09 982.832 1454.28 1068.94C1207.09 1106.8 948.134 1120.36 694.297 1142.19C658.048 1160.61 561.368 1173.57 577.385 1210.19C911.407 1134.71 1268.92 1110.9 1622.82 1121.08C1668.71 1131.51 1639.98 1179.88 1592.09 1162.33C1593.64 1205.03 1558.06 1239.81 1500.25 1254.48C1531.41 1247.86 1569.09 1257.78 1551.17 1283.8C1704.15 1292.95 1857.56 1317.06 2000.31 1359.43C2140.79 1413.35 2139.77 1563.6 2017.24 1623.16C2137.8 1650.75 2264.12 1653.88 2388.2 1666.19C2591.86 1683.88 2783.71 1748.12 2990.77 1749.35C3112.64 1735.95 3115.24 1632.56 3243.19 1639.01C3696.62 1607.93 4139.74 1715.52 4590.28 1749.39C4719.63 1778.45 4856.71 1757.37 4987.43 1784.46C5391.57 1845.02 5826.87 1770.08 6211.04 1899.51C6413.52 1830.02 6639.64 1792.16 6866.35 1780.67C7017.85 1790.43 7168.48 1769.86 7320.16 1775.78C7604.8 1777.01 7889.35 1787.25 8173.73 1779.72C8471.08 1765.4 8781.19 1797.23 9069.79 1736.63C9143.77 1705.75 9238.88 1705.38 9307.89 1669.94C9280.29 1637.66 9224.35 1619.75 9207.74 1582.22C9165.81 1527.77 9216.26 1469.19 9270.59 1431.29C9394.04 1374.56 9538.11 1337.07 9689.84 1333.77C9676.01 1308.78 9672.43 1282.13 9664.03 1256.27C9633.97 1231.38 9587.67 1213.54 9573.88 1180.73C9580.61 1139.65 9649.28 1127.15 9696.81 1116.44C9768.68 1016.94 9895.27 926.481 10050.8 883.324C10084 875.69 10122.3 854.855 10122.9 829.434C10085.6 805.995 10032.5 779.943 10041 740.48C10049.7 676.051 10154.5 652.169 10221.1 625.393C10215.3 619.084 10205.2 614.334 10202.5 607.083C10212.8 541.97 10240.1 479.163 10281.3 420.653C10295 381.644 10348.1 358.213 10404.2 354.645M10391.4 440.641C10362.3 445.887 10367.6 467.081 10389.3 476.747C10425.5 538.27 10374.7 604.771 10290 624.338C10347.7 628.454 10404.7 644.217 10463.1 647.576C10490.4 583.446 10498.8 511.654 10456.1 448.349C10436 441.731 10413.1 439.377 10391.4 440.641ZM992.693 405.795C923.951 441.519 977.252 509.165 1013.95 548.843C1056.97 541.359 1108.69 496.326 1065.29 466.139C1038.46 448.824 1041.75 398.172 992.693 405.795ZM10380.6 685.7C10356.5 686.57 10363.9 702.817 10366.1 714.02C10355.3 747.451 10267.8 715.219 10264.8 745.69C10322.7 753.624 10384.2 762.385 10442.1 760.752C10435.6 747.687 10451 732.586 10471.5 735.595C10527.1 743.917 10502.6 802.663 10559.7 810.958C10588.5 794.494 10571.9 772.635 10546.3 759.527C10515.4 715.266 10446.2 693.864 10380.6 685.7ZM10214.8 788.291C10183.5 801.01 10244.6 815.28 10260.9 809.082C10296.9 802.012 10360.1 842.655 10379.6 809.025C10328.9 796.983 10269.2 790.698 10214.8 788.291ZM10195.2 874.166C10181.5 872.404 10155.9 879.796 10182.7 882.365C10243.5 875.658 10323.8 896.046 10324 945.966C10296.3 969.663 10256.1 939.819 10221.6 945.267C10138.7 949.258 10044.9 932.874 9967.85 955.236C10069.1 981.84 10211.7 945.078 10320.2 980.767C10342.8 993.655 10318.4 1012.41 10296.1 1013.03C10309.7 1021.52 10364 1028.2 10344.7 1049C10312.6 1061.11 10376.4 1070.92 10347.5 1087.07C10326.8 1107.98 10302.2 1080.31 10279.3 1077.68C10172.5 1058.63 10061.2 1066.41 9952.91 1061.93C9922.38 1058.61 9837.2 1100.41 9844.52 1056.9C9990.16 1027.79 10146.5 1046.2 10294.7 1048.77C10165 1005.11 10010.3 1037.52 9873.09 1021.25C9857.73 1044.99 9779.99 1068.96 9813.53 1095.89C10016 1071.49 10223.1 1111.01 10426 1111.99C10479.4 1085.49 10430.4 1035.89 10450.1 1000.94C10459.3 987.766 10412.4 985.622 10428.9 971.804C10504.3 969.144 10542.9 1029.04 10594 1059.34C10628.2 1075.16 10600.3 1108.7 10631.6 1126.79C10665.9 1152.42 10604.2 1162.13 10583.6 1175.41C10537.9 1188.64 10476.5 1187.51 10438.2 1162.17C10232.4 1139.34 10023.3 1121.46 9815.85 1129.42C9766.84 1138.8 9720.37 1154.61 9668.5 1155.91C9659.36 1162.67 9650.34 1177.33 9664.7 1183.9C9985.13 1144.48 10322.8 1173.74 10640.8 1231.02C10694.6 1244.18 10754.4 1252.26 10799.7 1278.16C10822.1 1281 10819.5 1254.77 10806.8 1246.85C10748.4 1217.62 10676.1 1207.74 10615.7 1181.24C10606.8 1130.94 10724.1 1209.81 10700.6 1162.5C10668.9 1101.76 10641.4 1033.37 10564.2 991.31C10528.6 955.016 10457.4 946.188 10429.4 905.763C10351.7 894.413 10274.9 874.147 10195.2 874.166ZM10144.8 907.886C10122.6 916.406 10076.2 901.677 10071.2 922.784C10126.2 917.624 10184.1 924.587 10237.8 917.862C10211 904.284 10175.3 905.8 10144.8 907.886ZM1118.11 675.179C1106.4 674.731 1100.85 678.972 1104.17 686.908C1185.11 682.848 1199.34 759.322 1287.41 749.326C1275.5 696.742 1186.62 671.619 1118.11 675.179ZM987.372 717.88C935.512 726.767 811.872 738.983 863.823 788.803C920.658 774.604 974.128 751.885 1037.32 752.613C1030.71 735.227 1026.43 704.422 987.372 717.88ZM10039.9 985.995C10003.4 989.974 9966.92 988.348 9930.61 984.28C9908.91 982.899 9886.49 1019.97 9931 1005.34C10036.1 1009.63 10140.7 994.183 10245.4 1009.86C10290.2 1033.09 10270.1 976.879 10239.9 992.357C10173 989.127 10106.5 986.572 10039.9 985.995ZM1198.88 775.528C1133.03 770.389 1277.1 799.15 1283.69 776.7C1255.42 774.74 1227.15 774.337 1198.88 775.528ZM10058.6 1208.47C9944.73 1218.73 9830.32 1200.5 9716.99 1214.32C9874.42 1217.25 10050.5 1220.37 10213.9 1223.19C10168.2 1215.49 10109.5 1207.56 10058.6 1208.47ZM9932.19 1242.38C9884.67 1254.37 9753.61 1217.7 9753.22 1259.39C9892.05 1255.87 10047.2 1262.3 10183.4 1258.11C10100.5 1249.11 10016.4 1246.8 9932.19 1242.38ZM10579.2 1283.45C10553.4 1296.24 10570.9 1327.58 10535.6 1336.82C10566.8 1348.72 10610.7 1351.65 10647.3 1354.22C10657.2 1324.53 10617.8 1290.36 10579.2 1283.45ZM9921.3 1281.4C9884.69 1277.99 9678.86 1289.9 9812.23 1292.81C9865.86 1287.99 9920.47 1289.12 9974.31 1284.81C9994.37 1275.05 9927.44 1283.25 9921.3 1281.4ZM10074.4 1348.96C9912.37 1340.38 9753.53 1362.1 9596.24 1382.75C9474.53 1402.43 9330.71 1437.67 9281.89 1524.16C9249.2 1574.41 9310.29 1617.35 9364.44 1644.52C9370.5 1613.23 9442.28 1600.02 9435.42 1577.21C9471.34 1587.61 9498.46 1562.57 9532.18 1558.73C9581.8 1542.92 9460.07 1564.96 9490.25 1531.51C9735.9 1468.43 10026.8 1478.98 10273.1 1471.24C10075 1448.25 9869.82 1455.29 9675.36 1485.46C9595.87 1494.86 9514.45 1511.31 9433.14 1498.78C9434.71 1478.06 9481.86 1479.98 9505.05 1473.98C9489.83 1459.72 9426.35 1483.65 9426.19 1457.5C9577.64 1426.41 9731.98 1403.05 9889.73 1390.12C9905.24 1368.68 9932.4 1392.74 9957.07 1388.12C10063.2 1380.42 10172.2 1382.75 10276.4 1402.89C10336.2 1395.72 10416.6 1419.22 10418.5 1466.82C10414.8 1497.39 10368 1504.51 10331.6 1502.38C10428.1 1521.16 10533 1526.92 10633.2 1537C10665.7 1518.33 10630.7 1486.18 10633.1 1461.29C10703.4 1418.81 10796.3 1473.17 10862.7 1498.68C10949.2 1518.97 10939.9 1601.59 10882.8 1636.59C10908.2 1657.32 10920.3 1741.85 10968.8 1689.31C11091.5 1600.38 10967.9 1449.32 10800.9 1439.68C10572 1365.51 10320.2 1352.95 10074.4 1348.96ZM10079.2 1415.41C9979.85 1418.13 9862.24 1415.81 9772.62 1437.97C9899.5 1433.06 10026.1 1424.1 10153.8 1435.6C10159.3 1412.34 10101.4 1414.09 10079.2 1415.41ZM1392.77 1166.93C1479.37 1186.06 1282.89 1180.36 1392.77 1166.93ZM1216.12 1200.01C1098.97 1202.22 976.393 1208.13 869.257 1233.38C991.132 1226.51 1111.1 1208.13 1233.83 1205.73C1243.32 1195.36 1224.68 1200.12 1216.12 1200.01ZM1338.4 1223.46C1209.88 1231.77 1081.09 1239.84 953.489 1252.58C1082.05 1247.97 1228.1 1239.29 1364.52 1235.23C1364.87 1226.84 1349.9 1219.97 1338.4 1223.46ZM10115.8 1529.2C9924.91 1536.22 9702.74 1541.93 9561.54 1635.92C9634.35 1628.7 9708.12 1620.07 9773.83 1597.08C9844.93 1592.1 9793.58 1634.81 9764.78 1639.83C9823.72 1634.73 9882.45 1621.18 9942.89 1626.52C9949.8 1635.09 9941.59 1641.03 9929.58 1642.9C9792.16 1669.11 9646.83 1673.06 9510.35 1701.28C9477.48 1703.67 9454.57 1740.07 9479.06 1753.6C9642.9 1700.08 9833.36 1697.51 10012 1719.19C10033.5 1721.03 10050.5 1743.06 10018.3 1741.31C9960.99 1732.35 9852.92 1749 9826.01 1724.29C9802.03 1754.34 9655.97 1726.05 9724.77 1761.33C9651.71 1794.84 9548.24 1792.51 9471.38 1825.03C9464.72 1831.84 9458.58 1848.12 9474.61 1850.51C9632.13 1798.86 9816.93 1800.26 9988.94 1814.59C10011.4 1817.32 10065.7 1818.75 10055.3 1843.67C9926.11 1830.88 9793.3 1831.49 9666.74 1850.06C9672.46 1860.53 9703.47 1875.97 9673.56 1879.01C9595.82 1888.43 9515.99 1904.4 9458.63 1943.28C9445.79 1946.45 9444.26 1967.67 9463 1961.91C9622.76 1918.67 9796.59 1882.49 9971.35 1913.41C9992.53 1918.2 10042.2 1921.33 10034.7 1944.25C9869.16 1919.37 9698.03 1941.17 9545.18 1983.34C9571.6 1999.59 9653.48 1953.82 9667.07 1989.03C9619.57 2023.05 9496.18 2007.07 9466.56 2047.04C9632.44 2015.91 9814.88 1999.25 9990.08 2022.25C10005.1 2024.06 10023.4 2035.71 10012.6 2046.34C9836.08 2031.11 9635.53 2040.37 9474.61 2093.92C9504.52 2097.38 9583.45 2073.33 9619.2 2101.38C9562.41 2116.01 9449.68 2119.12 9468.96 2176.63C9623.52 2109.98 9829.16 2117.9 10008.4 2128.59C10026.7 2127.95 10057.3 2146.17 10037.2 2156.56C9880.08 2145.7 9714.23 2148.47 9565.84 2185.49C9574.06 2195.35 9637.1 2195.45 9599.74 2206.83C9558.31 2226.82 9440.01 2220.12 9474.74 2274.24C9559.56 2260.47 9641.63 2228.64 9734.62 2230.87C9832.96 2236.6 9950.43 2207.37 10038.6 2245.92C9954.12 2245.31 9872.05 2262.63 9787.48 2262.95C9795.66 2272.3 9841.8 2261.07 9820.11 2278.68C9759.75 2300.26 9684 2302.83 9615.61 2302.54C9604.93 2274.55 9561.59 2294.12 9538.17 2301.7C9561.17 2307.99 9597.39 2298.36 9619.43 2315.82C9577.86 2341.29 9437.63 2326.98 9462.96 2387.15C9622.6 2342.7 9809.17 2327.47 9980.22 2362.81C9997.56 2364.66 10026.8 2376.03 10018.5 2391.19C9936.65 2379.34 9854.97 2372.52 9771.4 2374.93C9794.13 2390.2 9858.1 2371.66 9867.1 2393.21C9803.4 2397.45 9745.28 2417.86 9679.91 2413.4C9618.02 2415.79 9538.57 2393.57 9491.06 2429.56C9517.52 2441.46 9619.57 2400.44 9629.46 2443.15C9584.64 2476.4 9435.46 2440.66 9448.93 2508.27C9607.4 2439.35 9808.46 2452.55 9984.94 2485.6C9997.34 2506.49 10025.2 2507.5 10050.5 2517.76C9955.83 2533.68 9856.98 2497.39 9761.56 2517.94C9667.15 2501.38 9565.3 2504.09 9483.5 2541.34C9521.92 2550.89 9577.08 2523.52 9608.74 2549.33C9608.08 2587.51 9465.52 2551.1 9506.75 2594.83C9676.1 2548.3 9865.83 2606.82 10032.5 2592.8C10050.4 2621.63 9980.59 2642.46 9953.04 2619.83C9842.09 2625.4 9731.26 2637.06 9621.65 2652.45C9606.11 2698.94 9461.41 2655.91 9434.38 2708.85C9613.65 2660.41 9812.28 2707.93 9994.07 2700.07C10036.3 2767.33 9864.94 2693.78 9855.39 2736.58C9760.85 2743.01 9669.33 2748.72 9573.24 2764.08C9541.58 2801.02 9427.04 2767.41 9419.92 2813.15C9592.69 2779.74 9782.93 2783.42 9958.04 2818.83C9965.4 2858.11 9875.73 2810.78 9860.83 2843.83C9717.95 2848.84 9566.79 2850.41 9427.29 2879.7C9400.88 2879.2 9401.35 2922.17 9429.49 2913.23C9564.07 2878.29 9712.09 2894 9852.92 2900.86C9883.35 2905.54 9941.71 2902.48 9944.57 2933.51C9771.99 2914.49 9594.48 2956.03 9424.61 2988.69C9386.14 2986.56 9379.3 3048.76 9423.03 3032.24C9603.77 2980.55 9808.6 3001.9 9995.85 3033.14C10020.2 3051.62 9971.66 3062.8 9951.77 3057.94C9822.35 3030.97 9667.2 3017.74 9546.09 3059.02C9582.5 3062.01 9592.48 3097.13 9547.83 3093.2C9490.8 3098.48 9348.87 3092.48 9377.77 3158.61C9513.12 3086.89 9682.22 3128.16 9837.73 3126.2C9869.07 3107.76 9931.5 3133.56 9887.26 3154.89C9762.58 3159.83 9631.87 3147.1 9508.76 3169.72C9489.9 3208.27 9386.58 3195.02 9366.11 3227.95C9541.9 3216.35 9721.85 3207.93 9898.11 3221.6C9933.17 3213.25 10016.6 3208.27 10005.5 3246.04C9981.44 3247.26 9954.73 3246.06 9936.93 3258.82C9795.63 3226.58 9643.15 3256.26 9501.73 3269.41C9488.82 3298.88 9424.46 3287.96 9406.99 3310.77C9589.27 3300.48 9773.21 3298.97 9956.19 3308.86C9981.42 3312.43 10029.3 3300.56 10038 3325.29C9990.71 3362.74 9923.38 3325.73 9865.49 3332.89C9740.05 3332.16 9614.48 3336.69 9490.79 3348.98C9574.8 3405.09 9332.5 3369.28 9375.33 3422.01C9538.86 3411.5 9704.19 3407.16 9869 3413.19C9892.86 3415.54 9949.32 3416.92 9926.06 3445.83C9777.89 3439.22 9628.14 3440.8 9482.58 3458.24C9457.81 3493.17 9356.22 3477.21 9353.43 3521.54C9526.6 3510.93 9703.36 3505.16 9876.87 3515.42C9920.38 3543.94 9809.04 3532.9 9787.52 3537.71C9677.18 3561.16 9550.89 3581.54 9440.02 3555.72C9409.16 3558.42 9471.3 3564.98 9466.04 3581.72C9424.14 3605.43 9349.29 3609.55 9335.05 3651.14C9494.34 3631.3 9658.22 3642.7 9819.9 3649.71C9839.05 3651.24 9851.33 3667.61 9842.81 3679.14C9697.72 3674.78 9548.1 3661.54 9406.1 3684.86C9437.99 3707.37 9387.01 3736.28 9359.22 3746.21C9503.2 3733.96 9648.96 3743.29 9793.8 3749.95C9809.69 3749.96 9813.54 3760.67 9814.97 3769.67C9676.99 3774.81 9535.03 3767.79 9399.9 3787.97C9418.15 3828.44 9276.11 3830.56 9286.64 3882.13C9477.2 3855.71 9702.87 3853.25 9876.36 3892.92C9874.11 3912.29 9807.35 3937.85 9806.89 3902.71C9756.45 3890.21 9702.7 3903.23 9650.88 3896.6C9572.47 3926.81 9473.64 3914.18 9393.22 3942.18C9405.33 3981.04 9304.6 3966.32 9299.41 4005.43C9291.31 4022.77 9319.6 4009.71 9320.74 3999.71C9424.8 3993.16 9523.14 3953.41 9631.07 3965.15C9640.98 3989.66 9591.16 3973.91 9575.52 3986.36C9556.54 4000.67 9527.59 4005.23 9506.11 4015.33C9602.32 4027.05 9712.05 4006.57 9805.09 4038.26C9811.61 4062.92 9759.96 4047.89 9741.95 4050.68C9625.65 4049.34 9508.36 4047.62 9393.58 4057.97C9357.13 4059.38 9372.21 4098.57 9335.35 4099.11C9312.34 4102.98 9271.84 4109.11 9278.75 4130.79C9308.97 4136.51 9343.13 4110.12 9368.15 4131.19C9347.07 4150.68 9289.31 4138.04 9272.23 4159.31C9403.78 4132.08 9544.36 4136.33 9681.54 4138.09C9710.44 4142.98 9759.88 4138.95 9767.97 4165.26C9619.7 4171.33 9449.25 4148.14 9321.55 4212.03C9346.28 4236.12 9288.78 4235.48 9280 4253.02C9409.78 4247.33 9538.4 4232.95 9668.75 4231.74C9696.01 4233.55 9745.13 4241.88 9720.29 4269.1C9596.66 4274.59 9473.82 4288.31 9349.83 4292.69C9314.29 4293.98 9295.03 4319.65 9271.76 4330.89C9407.46 4345.9 9579.1 4319.33 9715.38 4353.43C9607.07 4391.19 9450.29 4347.44 9329.44 4377.92C9290.87 4387.19 9218.95 4394.37 9239.8 4436.17C9386.72 4434.85 9536.73 4430.67 9684.1 4447.14C9696.41 4456.05 9699.54 4471.49 9679.71 4476.01C9536 4461.42 9391.19 4468.27 9248.74 4480.41C9190.33 4496.19 9328.12 4506.33 9263.07 4536.23C9376.88 4523.05 9493.96 4532.62 9608.98 4536.6C9633.91 4542.21 9695.15 4542.1 9672.5 4572.82C9532.74 4562.57 9391.82 4566.52 9254.72 4584.95C9223.17 4586.46 9258.21 4614.1 9231.88 4619.67C9219.31 4624.45 9171.87 4640.61 9202.07 4645.51C9357.04 4618.75 9520 4632.19 9678.83 4636.88C9704.69 4636.73 9706.07 4665.06 9681.64 4666.11C9541.52 4667.99 9396.25 4658.99 9261.06 4689.08C9230.64 4713.15 9169.84 4721.53 9162.12 4757.13C9359.12 4736.58 9569.1 4736.41 9762.74 4758.97C9797.3 4793.78 9694.42 4803.57 9667.21 4782.47C9530.73 4765.49 9390.84 4778.54 9255.47 4792.6C9299.48 4845.65 9167.71 4806.5 9173.84 4847.29C9336.69 4836.75 9501.54 4839.75 9665.13 4850.21C9692.18 4854.77 9679.23 4881.98 9655.02 4879.85C9512 4874.35 9366.32 4867.55 9226.59 4890.41C9236.47 4926.97 9130.24 4919.76 9158.43 4959.49C9301.31 4941.64 9448.81 4941.31 9594.28 4947.75C9622.41 4908.59 9742.72 4933.52 9710.58 4979.67C9680.64 5002.82 9655.67 4950.05 9625.14 4980.57C9499.57 4969.07 9367.73 4983.6 9243.91 4999.47C9225.35 5030.76 9160.17 5024.28 9139.11 5049.65C9288.65 5026.63 9443.43 5042.19 9595.14 5037.8C9627.06 5025.65 9693.83 5035.02 9643.88 5063.39C9523.36 5078.2 9382.14 5056.47 9256.65 5079.94C9215.74 5071.97 9253.53 5102.98 9222.75 5103.65C9194.12 5115.02 9131.52 5113.73 9127.36 5136.07C9287.16 5125.7 9453.02 5124.14 9614.93 5137.27C9629.57 5139.22 9636.78 5150.44 9634.82 5159.86C9468.95 5163.25 9295.51 5152.72 9136.43 5187.78C9109.58 5227.34 9166.54 5211.04 9195.32 5229.32C9337.5 5210.36 9484.79 5217.96 9629.01 5227.86C9656.09 5218.73 9686.75 5253.91 9652.52 5256.34C9472.87 5247.77 9289.21 5255.79 9120.68 5298.45C9109.03 5301.31 9099.1 5319.48 9117.84 5319.9C9287.48 5293.97 9465.34 5302.12 9637.95 5316.98C9659.57 5314.2 9659.11 5340.28 9639.22 5338.81C9477.77 5331.93 9311.64 5329.78 9156.8 5361.1C9145.79 5382.62 9094.23 5395.83 9104.31 5416.88C9273.64 5388.68 9450.15 5393.44 9623.82 5400.79C9651.4 5406.11 9633.51 5429.72 9611.24 5428.52C9457.17 5424.73 9302.85 5436.19 9151.39 5453C9121.43 5454.24 9149.86 5469.44 9151.55 5480.7C9140.66 5505.33 9076.11 5488.8 9083.04 5521.18C9247.7 5503.9 9416.87 5493.15 9584.13 5510.98C9601.21 5512.35 9611.79 5524 9604.99 5534.97C9448.6 5538.03 9288.44 5531.19 9137.55 5562.1C9109.27 5567.03 9152.13 5590 9130.19 5600.28C9117.93 5611.05 9078.11 5597.76 9079.88 5614.74C9227.61 5608.19 9376.26 5581.6 9525.01 5605.35C9540.35 5606.43 9546.07 5618.46 9547.33 5627.57C9402.5 5630.41 9253.3 5638.73 9111.84 5662.85C9080.57 5656.47 9070.22 5704.35 9113.01 5687.4C9236.68 5672.82 9366.05 5664.26 9489.92 5687.38C9474.83 5725.83 9383.32 5695.56 9341.23 5698.84C9231.46 5712.31 9118.57 5723.31 9015.76 5753.84C9453.93 5732.26 9922.71 5753.57 10325.9 5890.35C10338.9 5654.24 10367.9 5417.59 10387.5 5182.06C10432.6 5010.75 10437.1 4835.62 10457.5 4662.12C10520.4 4368 10509.9 4069.13 10578.5 3775.6C10612.2 3652.83 10613.1 3523.82 10664.6 3404.59C10646 3342.95 10675.5 3278.08 10676.8 3215.37C10754.4 2737.17 10819.6 2257.44 10838.5 1775.52C10889.2 1696.18 10778.5 1603.5 10662.7 1594.05C10628.7 1561.23 10562.4 1556.62 10509.8 1553.96C10378.8 1541.11 10247 1529.3 10115.8 1529.2ZM803.827 1269.45C778.154 1286.68 750.804 1264.84 803.827 1269.45C820.081 1263.79 864.519 1275.46 872.701 1263.8C850.026 1264.57 822.668 1260.69 803.827 1269.45ZM851.091 1293.78C885.533 1301.28 873.069 1277.47 851.091 1293.78ZM758.726 1310.63C787.26 1303.42 827.946 1307.99 851.091 1293.78C820.875 1295.91 775.608 1293.44 758.726 1310.63ZM1572.96 1329.3C1283.01 1331.7 993.452 1337.54 715.781 1394.95C764.557 1393.73 727.488 1440.44 772.469 1428.52C977.533 1394.91 1187.75 1365.45 1400.68 1367.98C1440.09 1383.13 1407.79 1419.15 1418.36 1439.24C1473.6 1491.59 1582.03 1466.51 1667.15 1477.85C1681.67 1460.77 1718.46 1426.77 1670.25 1418.32C1614.44 1414.39 1651.59 1379.78 1685.6 1377.07C1771.8 1375.57 1864.6 1393.01 1927.45 1437.18C1948.68 1469.86 1927.46 1506.23 1890.51 1525.45C1918.94 1545.38 1960.58 1563.06 1972.2 1593.38C2073.7 1547.05 2042.08 1407.3 1913.66 1388.58C1802.1 1364.57 1692.23 1324.55 1572.96 1329.3ZM9495.86 1630.75C9575.54 1641.43 9441.71 1674.53 9495.86 1630.75ZM630.013 1405.22C556.053 1417.73 473.48 1434.92 416.311 1466.77C496.07 1451.11 570.483 1425.59 649.982 1409.34C673.002 1405.12 641.286 1396.98 630.013 1405.22ZM1265.28 1439.46C1117.29 1442.35 970.109 1454.25 826.445 1476.81C846.408 1485.95 876.681 1482.18 899.486 1490.6C1034.65 1467.9 1172.96 1450.01 1312.28 1442.23C1308.1 1431.31 1273.66 1444.73 1265.28 1439.46ZM9352.45 1731.48C8880.7 1862.76 8358.9 1820.61 7860.32 1833C7597.26 1821.83 7334.39 1815.3 7074.5 1828.24C6967.27 1846.36 6850.5 1812.01 6745.3 1839.77C6593.55 1850.31 6450.23 1887.28 6306.81 1919.03C6283.28 1932.96 6224.98 1927.85 6246.23 1961.31C6248.44 2015.92 6262 2067.9 6252.46 2121.72C6253.59 2141.1 6268.29 2171.72 6235.42 2182.13C6157.07 2118.78 6188.59 2026.13 6138.46 1954.86C6054.27 1903.68 5934.67 1896.86 5833.44 1869.24C5509.67 1857.66 5184.58 1866.03 4862.98 1819.83C4616.75 1804.46 4370.39 1781.58 4126.47 1748.63C3997.15 1734.63 3863.64 1727.98 3739.9 1694.6C3462.6 1676.9 3280.57 1731.81 3019.39 1800.81C3018.02 1899.89 3112.61 1987.1 3088.95 2091.66C3111.13 2130.99 3113.57 2172.55 3100.35 2212.27C3135.66 2244.86 3152.56 2285.36 3131.2 2324.26C3137.5 2356.81 3101.79 2337.24 3101.2 2321.66C3086.44 2260.41 3028.13 2205.62 3054.73 2140.89C3012.36 2032.74 3006.06 1914.72 2926.17 1811.4C2892.59 1798.83 2859.08 1766.11 2818.43 1781.38C2687.79 1795.73 2567.27 1744.29 2441.37 1735.97C2334.94 1690.9 2205.2 1713.29 2091.72 1684.43C2044.63 1676.28 1994.26 1655.35 1946.67 1672.47C1945.08 1772.94 1984.81 1871.16 1993.91 1970.13C2013.47 2044.26 1992.96 2129.68 2061.27 2195.16C2080.79 2399.27 2072.41 2606.83 2139.11 2808.69C2149.61 3090.44 2214.02 3361.19 2266.4 3638.92C2323.05 3771.96 2313.73 3911.64 2361.44 4045.81C2385.45 4182.5 2447.88 4317.96 2453.53 4454.47C2459.41 4489.38 2509.78 4521.75 2479.2 4556.79C2493.99 4580.29 2469.58 4635.42 2501.24 4633.92C2504.01 4714.16 2498.4 4804.06 2552.48 4878.35C2570.19 5047.1 2608.92 5214.26 2676.34 5377.55C2675.86 5409.16 2678.05 5443.12 2705.56 5470.26C2699.17 5546.68 2737.21 5622.23 2757.07 5697.35C2716.48 5712.62 2783.86 5715.87 2799.28 5721.04C2866 5744.84 2935.83 5778.09 2953.67 5831.81C2987.76 5888.21 2919.26 5936.43 2888.87 5982.13C2928.32 6004.24 2986.71 5990.87 3030.96 6006.11C3073.2 6022.91 3013.34 5975.19 3060.92 5979.11C3175.08 5970.65 3282.79 6014.24 3397.5 5999.77C3472.61 6020.37 3557.24 6018.5 3638.7 6015.59C3618.85 5891.92 3545.78 5769.12 3568.72 5644.7C3578.03 5616.74 3602.06 5648.19 3599.64 5662.62C3593.3 5736.12 3631.09 5806.02 3652.43 5877.14C3642.31 5936.35 3742.62 6014.55 3842.14 6012.22C3962.84 6016.63 4082.96 6029.23 4202.54 6042.94C4184.79 6022.21 4161.65 5968.34 4227.4 5984.4C4259.22 6020.33 4298.54 6063.84 4367.4 6066.71C4496.46 6076.97 4623.06 6099.21 4751.83 6111.06C4885.01 6106.3 5016.09 6126.44 5146 6146.03C5490.9 6154.38 5839.95 6164.7 6181.07 6131.21C6279.06 6091.84 6403.08 6123.79 6502.82 6116.69C6478.04 6093.92 6504.61 6041.09 6543.84 6079.42C6547.83 6119.98 6600.29 6134.37 6654.44 6121.05C6636.47 6080.86 6702.66 6089.16 6710.45 6120.83C7026.66 6123.2 7347.96 6123.02 7663.44 6101.12C7667.36 6087.22 7685.08 6074.96 7708.66 6075.82C7727.79 6116.95 7796.02 6094.16 7839.65 6098.49C7798.65 6070.52 7795.06 6026.48 7777.18 5993.06C7872.56 5988.53 7846.96 6087.58 7938.43 6091.43C8020.09 6101.99 7928.23 6041.47 7959.86 6019.7C7993.71 6002.41 8036.32 6033.97 8066.24 6008.05C8139.95 6022.18 8055.52 6066.62 8045.64 6091.36C8160.54 6084.33 8283.36 6098.85 8391.36 6068.31C8390.75 6056.65 8359.15 6033.88 8388.17 6025.6C8438.87 6007.99 8429.72 6076.57 8479.07 6065.18C8588.02 6067.2 8695.57 6057.69 8803.66 6051.93C8726.89 6044.82 8696.55 5979.37 8674.66 5933.52C8683.41 5862.01 8784.1 5814.76 8873.43 5796.25C8950.75 5568.14 8999.4 5333.43 9009.5 5097.22C9101.07 4865.99 9052.12 4623.94 9142.64 4393.53C9145.47 4243.08 9172.69 4094.45 9185.66 3945.59C9226.96 3776.1 9209.79 3598.33 9255.93 3428.97C9289.26 3260.36 9269.68 3086.95 9311.26 2919.18C9304.06 2830.03 9363.77 2744.67 9331.88 2656.02C9313.14 2486.1 9381.62 2320.82 9354.59 2151C9379.82 2028.68 9369.2 1908.41 9368.87 1787.18C9388.54 1772.42 9396.03 1724.13 9352.45 1731.48ZM506.331 1570.28C489.15 1587.96 471.265 1564.5 506.331 1570.28C578.326 1551.09 664.71 1539.32 728.451 1514.51C654.098 1530.24 571.26 1540.49 506.331 1570.28ZM297.064 1524.19C202.774 1594.58 327.747 1699.04 447.255 1714.8C448.076 1683.24 426.165 1654.04 419.526 1623.15C404.865 1623.5 369.493 1624.87 389.088 1609.06C424.948 1577.59 321.658 1633.04 341.893 1592.43C320.363 1574.91 320.42 1541.03 297.064 1524.19ZM523.467 1532.91C472.556 1543.66 411.916 1552.28 373.079 1577.03C427.54 1566.28 479.808 1550.56 532.153 1535.86C544.034 1531.22 529.282 1530.97 523.467 1532.91ZM9506.36 1988.17C9556.51 1986.38 9473.05 2003.23 9506.36 1988.17ZM9644.69 2273.41C9669.46 2264.27 9654.87 2288.27 9644.69 2273.41ZM9911.96 2499.19C9983.52 2497.14 9933.61 2519.67 9911.96 2499.19ZM9539.77 2631.85C9558.57 2656.51 9445.71 2640.93 9539.77 2631.85ZM9446.6 2744.41C9507.61 2751.01 9400.27 2772.35 9446.6 2744.41ZM9520.2 2934.29C9544.97 2925.16 9530.38 2949.16 9520.2 2934.29ZM878.327 2699.89C854.735 2702.72 829.142 2706.38 811.546 2718.22C827.412 2726.9 908.078 2704.63 878.327 2699.89ZM1057.49 3364.57C1026.04 3377.71 976.435 3367.19 952.156 3388.09C967.273 3414.99 1084.37 3367.57 1057.49 3364.57ZM9310.47 3748.28C9372.72 3737.26 9303 3773.46 9310.47 3748.28ZM1127.76 3756.01C1086.14 3766.85 1049.5 3785.18 1009.54 3798.61C1049.07 3807.26 1149.26 3763.1 1127.76 3756.01ZM9448.7 4017.06C9414.76 4028.79 9405.51 4006.68 9448.7 4017.06C9508.27 4024.47 9491.24 4004 9448.7 4017.06ZM1205.11 3961.05C1187.32 3965.37 1162.99 3966.81 1152.94 3978.91C1159.46 3985.63 1256.99 3959.67 1205.11 3961.05ZM1012.31 4159.64C1043.3 4165.94 1005.26 4184.06 1012.31 4159.64ZM1117.14 4213.41C1113.4 4230.32 1091.67 4206.99 1117.14 4213.41C1170.44 4205.31 1161.6 4190.57 1117.14 4213.41ZM1178.79 4296.75C1164.69 4315.16 1145.19 4289.55 1178.79 4296.75C1220.66 4301.44 1205.44 4279.09 1178.79 4296.75ZM9221.67 4534.43C9246.44 4525.3 9231.85 4549.3 9221.67 4534.43ZM1157.5 4777.5C1189.79 4816.09 1120.7 4813.18 1157.5 4777.5ZM1184.38 4990.19C1166.84 4998.83 1187.3 5019.58 1185.74 5032.09C1208.13 5031.24 1194.92 4991.65 1184.38 4990.19ZM1371.59 5109.78C1337.65 5120.15 1289.9 5119.53 1263.33 5136.65C1283.86 5140.64 1386.51 5118.12 1371.59 5109.78ZM1395.82 5282.34C1379.89 5288.2 1361.02 5294.66 1352.94 5306.71C1368.64 5305.55 1415.19 5281.11 1395.82 5282.34ZM1326.78 5310.51C1312.78 5312.78 1299.02 5317.94 1295.34 5328.31C1313.97 5325.54 1371.09 5307.97 1326.78 5310.51ZM1272.25 5510.31C1275.77 5525.68 1274.61 5547.51 1293.54 5557.27C1286.05 5542.61 1297.32 5512 1272.25 5510.31ZM9454.69 5784.57C9344.83 5789.53 9230.39 5770.44 9124 5793.88C9108.64 5804.46 9084.94 5823.28 9101.78 5839.51C9494.94 5813.09 9899.83 5868.47 10266.9 5974.42C10337.6 5994.12 10418.1 6020.58 10443.3 6072.04C10530.4 6037.62 10435.9 5943.6 10352.3 5943.75C10088.3 5822.96 9759.27 5800.26 9454.69 5784.57ZM9381.89 5867.19C9275.74 5865.93 9167.07 5867.27 9064.66 5886.06C9071.82 5902.26 9115.65 5895.62 9133.86 5897C9303.98 5884.73 9486.82 5885.75 9650.02 5882.93C9561.09 5872.55 9471.65 5870.05 9381.89 5867.19ZM2485.18 5719.91C2475.9 5719.31 2471.01 5731.79 2482.25 5730.93C2565.43 5730.41 2645.43 5748.11 2726.27 5759.68C2789.8 5773.22 2780.41 5822.57 2831.93 5842.89C2848.01 5916.51 2761.08 5966.3 2682.57 6001.14C2669.13 6050.47 2752.31 6009.3 2760.23 5985.88C2829.57 5970.06 2873.57 5923.35 2892.07 5876.07C2895.82 5826.76 2845.75 5781.05 2785.59 5756.66C2689.83 5726.98 2584.34 5726.25 2485.18 5719.91ZM2302.7 5722.99C2125.46 5732.56 1930.66 5730.27 1769.89 5776.59C2002.22 5763.97 2232.98 5718.84 2466.83 5729.07C2416.39 5718.17 2356.74 5727.56 2302.7 5722.99ZM2091.06 5775.47C2249.28 5765.16 2408.82 5762.25 2568.09 5772.05C2580.31 5768.82 2599.37 5754.05 2574.38 5754.73C2413.04 5746.26 2247.73 5756.28 2091.06 5775.47ZM9587.63 5959.41C9502.35 5967.13 9415.28 5950.01 9331.2 5963.49C9276.67 5968.16 9266.65 6019.47 9204.75 6012.68C9232.02 6057.87 9093.56 6031.4 9082.19 6076.21C9154.56 6106.01 9263.08 6068.75 9268.29 6013.11C9481.66 5993.33 9719.16 6002.09 9919.57 6061.22C9947.96 6058.24 9977.4 6054.1 10005.9 6061.28C9992.11 6090.98 9921.36 6081.12 9910.73 6112.81C9929.69 6129.77 9918.27 6143.72 9904.55 6159.08C9945.58 6152.11 9944.86 6113.03 9991.5 6111.62C10033.2 6089.5 10121.3 6096.62 10130.5 6052.79C10065.4 6061.49 10011.5 5968.69 9943.44 6005.29C9825.89 5985.12 9707.82 5966.92 9587.63 5959.41ZM9071.13 5942.89C9065.85 5950.49 9097.41 5958.28 9080.13 5965.89C9011.92 5968.64 8917.7 5975.54 8891.19 6026.55C8954.05 6059.32 8984.44 5989.12 9043.57 5985.03C9085.19 5988.67 9149.08 5941.96 9071.13 5942.89ZM8936.72 5949.01C8895.71 5953.65 8859.71 5968.19 8825.16 5982.97C8832.44 6015.01 8876.78 6008.43 8887.3 5984.6C8891.51 5970.62 9001.03 5944.8 8936.72 5949.01ZM2401.72 5784.92C2366.12 5794.49 2286.67 5775.3 2273.05 5795.95C2383.25 5795.87 2499.13 5801.04 2603.43 5802.15C2560.6 5770.2 2465.17 5792.74 2401.72 5784.92ZM1708.16 5829.28C1834.15 5811.2 1968.66 5792.63 2091 5775.47C1964.18 5785.16 1820.34 5793.44 1708.16 5829.28ZM10185.6 6011.88C10179 6036.43 10105.8 6014.78 10131 6046.39C10180.2 6037.92 10263.5 6012.89 10287.1 6061.02C10318.6 6093.79 10187.1 6148.06 10291.7 6128.29C10350.7 6077.21 10287.4 6003.53 10185.6 6011.88ZM2234.49 5793.39C2265.18 5784.31 2252.54 5807.49 2234.49 5793.39ZM1556.93 5776.46C1583.13 5779.63 1537.81 5790.11 1556.93 5776.46ZM2489.94 5814.3C2563.56 5833.91 2392.65 5817.12 2489.94 5814.3ZM2338.42 5813.4C2320.1 5810.39 2236.85 5824.33 2288.18 5822.58C2298.31 5819.7 2385.76 5819.33 2338.42 5813.4ZM9081.06 6000.62C9055.39 6011.28 9009.16 6015.42 8999.75 6033.11C9026.29 6081.34 9092.61 6029.58 9137.67 6023.49C9131.91 6010.84 9100.92 5998.05 9081.06 6000.62ZM2182 5823.54C2228.57 5813.07 2195.41 5838.01 2182 5823.54ZM2070.44 5830.34C2106.64 5821.3 2083.18 5849.5 2070.44 5830.34ZM2042.06 5833.12C2066.89 5823.99 2052.3 5847.95 2042.06 5833.12ZM1692.01 5828.88C1675.28 5831.87 1655.43 5832.38 1641.31 5839.94C1637.52 5848.25 1722.67 5831.5 1692.01 5828.88ZM1962.81 5838.99C1887.45 5846.59 1810.71 5851.62 1736.85 5864.33C1690.55 5862.55 1720.74 5873.92 1732.38 5871.4C1813.06 5863.17 1892.11 5848.43 1973.64 5843.46C2031.22 5845.04 1976.49 5831.34 1962.81 5838.99ZM2633.14 5863.06C2554.17 5854.51 2485.8 5873.01 2421.69 5902.01C2325.12 5887.55 2216.49 5900.8 2131.44 5927.47C2084.53 5918.83 2030.04 5932.1 1991.01 5939.8C2107.86 5925.05 2223.71 5940.93 2340.39 5950.49C2413.38 5897.91 2516.02 5899.7 2612.32 5883.15C2652.36 5870.78 2638.98 5903.76 2618.75 5905.55C2482.45 5915.73 2330.65 5961.5 2269.07 6046.96C2228.8 6048.47 2249.6 6096.31 2205.21 6094.61C2178.73 6080.1 2138.51 6073.6 2116.48 6094.7C2056.88 6097.48 1993.27 6105.76 1945.11 6129.56C1948.6 6136.37 1983.31 6116.73 1993.46 6131.05C1999.37 6147.21 1961.43 6144.72 1958.44 6159.44C2007.72 6151.74 2048.35 6122.39 2102.13 6136.02C2161.5 6152.41 2182.67 6201.35 2166.36 6240.85C2218.94 6238.71 2197.72 6160.67 2249.11 6199.27C2327.88 6174.79 2134.69 6095.84 2272.08 6094.8C2384.25 5996.44 2597.17 5996.06 2688.73 5884.38C2702.59 5861.75 2653.88 5856.43 2633.14 5863.06ZM9424.89 6047.6C9344.35 6098.55 9335.78 6201.77 9418.19 6260.28C9520.2 6276.91 9624.2 6291.59 9729.04 6293.31C9735.5 6290.62 9755.21 6284.42 9737.31 6282.39C9681.71 6280.61 9630.85 6257.79 9574.33 6267.68C9482.76 6273.04 9404.5 6221.52 9381.93 6163C9375.16 6118.07 9417.88 6082.02 9446.98 6045.73L9424.89 6047.6ZM9332.36 6059.5C9309.25 6091.96 9255.8 6065.58 9226.73 6086.7C9251.97 6102.68 9358.14 6084.25 9332.36 6059.5ZM1918.49 5878.68C1981.64 5882.09 1960.55 5863.42 1918.49 5878.68ZM9723.34 6091.91C9704.79 6126.27 9619.72 6089.03 9612.01 6124.32C9685.86 6136.07 9747.08 6184.9 9707.7 6235.11C9763.77 6252.35 9812.27 6194.56 9829.03 6163.17C9797.03 6138.83 9763.36 6110.81 9723.34 6091.91ZM1526.53 5938.71C1657.44 5918.35 1795.57 5914.11 1918.49 5878.68C1785.9 5887.47 1643.83 5907.99 1526.53 5938.71ZM1367.96 5883.19C1391.93 5892.16 1330.31 5894.94 1367.96 5883.19ZM1338.42 5898.3C1321.47 5904.59 1288.04 5901.99 1285.47 5918.94C1292.87 5926.43 1361 5900.22 1338.42 5898.3ZM1906.5 5944.71C1944.57 5946.74 1872.4 5958.03 1906.5 5944.71ZM2278.48 5969.68C2304.31 5963.89 2277.09 5986.94 2278.48 5969.68ZM1754.64 5967.92C1805.32 5964.05 1786.66 5985.18 1754.64 5967.92ZM1478.4 5969.91C1391.25 5990.83 1277.96 5996.95 1220.44 6048.55C1300.78 6030.81 1377.7 6002.8 1463.26 5995.21C1487.08 5997.21 1512.19 5959.07 1478.4 5969.91ZM2159.15 6002.12C2108.24 6006.33 2040.99 5997.57 1998.05 6014.2C2073.73 6008.63 2150.01 6010.36 2226.24 6013.64C2260.32 5994.26 2173.67 6005.55 2159.15 6002.12ZM2472.07 6022.54C2498.27 6025.71 2452.95 6036.19 2472.07 6022.54ZM1555.1 6007.87C1455.85 6015.61 1361.41 6040.16 1270.51 6066.71C1276.07 6075.27 1298.12 6081.14 1311.92 6081.31C1400.3 6043.08 1505.77 6028.36 1609.76 6023.9C1600.1 6011.54 1573.9 6008.37 1555.1 6007.87ZM2175.38 6032.45C2200.15 6023.28 2185.63 6047.28 2175.38 6032.45ZM2104.85 6055C2081.13 6056.58 2044.9 6053.53 2031.82 6061.75C2077.97 6061.61 2124.39 6061.63 2170.21 6058.06C2161.03 6048.21 2122.49 6058.11 2104.85 6055ZM1640 6042.03C1545.49 6046.01 1452.6 6061.71 1368.01 6089.88C1478.66 6104.48 1594.17 6065.37 1709.03 6062.46C1703.32 6042.07 1663.68 6038.23 1640 6042.03ZM1732.94 6084.42C1645.38 6089.68 1550.86 6097.04 1472.14 6117.01C1557.76 6131.95 1666.39 6115.43 1759.29 6104.36C1783.34 6093.1 1755.81 6076.46 1732.94 6084.42ZM1914.65 6098.54C1895.41 6100.79 1876.63 6104.84 1859.4 6110.97C1870.11 6139.86 1975.95 6090.26 1914.65 6098.54ZM9599.83 6399.01C9563.87 6426.97 9595.6 6457.21 9568.07 6483.95C9573.4 6689.66 9545.4 6897.74 9496.27 7099.53C9457.58 7111.95 9405.36 7110.2 9364.29 7124.56C9318.07 7110.66 9218.56 7096.64 9268.79 7149.04C9368.96 7136.01 9469.76 7148.67 9564.1 7170.56C9675.83 6939.41 9706.46 6681.9 9632.63 6437.42C9624.28 6424.76 9623.9 6400.32 9599.83 6399.01ZM1851.93 6184.54C1880.22 6200.43 1825.03 6222.27 1851.93 6184.54ZM2147.15 6350.39C2087.76 6376.44 2162.27 6424.09 2144.36 6459.37C2189.94 6619.14 2293.05 6792.94 2330.57 6962.46C2354.98 6990.98 2345.26 7024.21 2328.77 7052.66C2359.79 7048.68 2391.28 7051.92 2422.58 7054.18C2442.57 6981.78 2409.89 6907.7 2393.53 6835.86C2351.29 6682.12 2304.2 6525.52 2194.02 6386.1C2181.37 6373.99 2176.98 6345.01 2147.15 6350.39ZM9239.97 6996.51C9232.74 7013.22 9225.11 7043.03 9248.83 7055.8C9270.63 7041.46 9266.51 7004.36 9239.97 6996.51ZM2483.56 6993.95C2507.38 7005.44 2468.53 7059.6 2483.56 6993.95ZM9466.24 7196.16C9469.25 7216.58 9433.05 7273.82 9477.23 7284.93C9521.95 7257.82 9599.14 7177.07 9466.24 7196.16ZM2481.99 7038.86C2508.13 7035.77 2475.62 7056.58 2481.99 7038.86ZM2487.03 7054.14C2486.1 7077.76 2469.74 7108.93 2486.63 7128.5C2504.99 7109.54 2485.6 7075.72 2487.03 7054.14ZM2391.2 7099.42C2314.2 7084.4 2357.65 7163.06 2377.82 7193.72C2426.28 7206.34 2406.91 7172.25 2419.19 7156.06C2410.64 7137.95 2446.26 7087.72 2391.2 7099.42ZM2222.16 7124.33C2181.31 7124.42 2133.8 7166.87 2186.92 7173.36C2167.91 7138.58 2247.78 7150.43 2222.16 7124.33ZM9496.41 7334.19C9455.05 7335.9 9409.88 7333.93 9381.37 7355.07C9415.36 7375.63 9489.95 7348.25 9496.41 7334.19Z" fill="#F8FAFC"/>
</g>
<defs>
<clipPath id="clip0_249_96">
<rect width="10887" height="7262" fill="white" transform="translate(253.439) rotate(2)"/>
</clipPath>
</defs>
</svg>
