<svg width="200" height="200" viewBox="0 0 200 200" fill="none" xmlns="http://www.w3.org/2000/svg">
<path fill-rule="evenodd" clip-rule="evenodd" d="M99.9994 2.58588e-06C103.716 -0.00206765 107.327 1.23898 110.258 3.52571C113.188 5.81246 115.27 9.01358 116.171 12.6199L121.902 35.6379C127.145 56.523 143.451 72.8311 164.331 78.0746L187.346 83.8068C190.958 84.7018 194.166 86.7809 196.46 89.7124C198.754 92.6439 200 96.2591 200 99.9816C200 103.704 198.754 107.319 196.46 110.251C194.166 113.182 190.958 115.261 187.346 116.156L164.331 121.889C143.451 127.132 127.145 143.44 121.902 164.326L116.171 187.344C115.277 190.956 113.198 194.166 110.268 196.46C107.337 198.754 103.721 200 99.9994 200C96.2778 200 92.6634 198.754 89.7325 196.46C86.8016 194.166 84.7233 190.956 83.8276 187.344L78.0964 164.326C75.534 154.07 70.232 144.704 62.7584 137.23C55.2859 129.755 45.9218 124.453 35.6677 121.889L12.6543 116.156C9.0423 115.261 5.83265 113.182 3.53971 110.251C1.24561 107.319 0 103.704 0 99.9816C0 96.2591 1.24561 92.6439 3.53971 89.7124C5.83265 86.7809 9.0423 84.7018 12.6543 83.8068L35.6677 78.0746C45.9218 75.5108 55.2859 70.2082 62.7584 62.7335C70.232 55.2588 75.534 45.8931 78.0964 35.6379L83.8276 12.6199C84.7303 9.01358 86.8121 5.81246 89.7419 3.52571C92.6728 1.23898 96.2836 -0.00206765 99.9994 2.58588e-06Z" fill="url(#paint0_linear_149_97)"/>
<defs>
<linearGradient id="paint0_linear_149_97" x1="-138.225" y1="237.386" x2="389.524" y2="239.135" gradientUnits="userSpaceOnUse">
<stop stop-color="#735CDD"/>
<stop offset="1" stop-color="#00A7E1"/>
</linearGradient>
</defs>
</svg>
