<svg width="200" height="200" viewBox="0 0 200 200" fill="none" xmlns="http://www.w3.org/2000/svg">
<path fill-rule="evenodd" clip-rule="evenodd" d="M100 3.29841e-06C104.202 -0.00240867 108.299 1.31805 111.708 3.77408C115.118 6.2301 117.667 9.697 118.995 13.6831L129.507 45.2369C133.509 57.1596 142.846 66.5485 154.798 70.5227L186.359 81.0584C190.333 82.3924 193.788 84.9406 196.236 88.3433C198.683 91.7461 200 95.8315 200 100.023C200 104.214 198.683 108.299 196.236 111.702C193.788 115.105 190.333 117.653 186.359 118.987L154.798 129.523C142.873 133.524 133.482 142.859 129.507 154.809L118.969 186.362C117.634 190.336 115.086 193.79 111.682 196.237C108.279 198.684 104.192 200 100 200C95.8078 200 91.7215 198.684 88.3179 196.237C84.9144 193.79 82.3656 190.336 81.0314 186.362L70.4933 154.809C68.5281 148.921 65.2199 143.572 60.8304 139.183C56.4408 134.795 51.0903 131.488 45.2018 129.523L13.6408 118.987C9.66658 117.653 6.21184 115.105 3.76428 111.702C1.31673 108.299 0 104.214 0 100.023C0 95.8315 1.31673 91.7461 3.76428 88.3433C6.21184 84.9406 9.66658 82.3924 13.6408 81.0584L45.2018 70.5227C57.1272 66.5218 66.5181 57.1863 70.4933 45.2369L81.0314 13.6831C82.3579 9.70132 84.9034 6.23753 88.3076 3.7819C91.7118 1.32627 95.8022 0.00318989 100 3.29841e-06Z" fill="url(#paint0_linear_188_239)"/>
<defs>
<linearGradient id="paint0_linear_188_239" x1="-146.088" y1="-75.1015" x2="487.734" y2="-72.9999" gradientUnits="userSpaceOnUse">
<stop stop-color="#735CDD"/>
<stop offset="1" stop-color="#00A7E1"/>
</linearGradient>
</defs>
</svg>
