<svg width="136" height="104" viewBox="0 0 136 104" fill="none" xmlns="http://www.w3.org/2000/svg">
<path d="M87.6538 32H112.846M87.6538 52H112.846M87.6538 72H112.846M17.1154 102H117.885C121.893 102 125.738 100.42 128.573 97.6066C131.407 94.7936 133 90.9783 133 87V17C133 13.0218 131.407 9.20645 128.573 6.3934C125.738 3.58035 121.893 2 117.885 2H17.1154C13.1065 2 9.26188 3.58035 6.42719 6.3934C3.59251 9.20645 2 13.0218 2 17V87C2 90.9783 3.59251 94.7936 6.42719 97.6066C9.26188 100.42 13.1065 102 17.1154 102ZM57.4231 34.5C57.4231 36.1415 57.0973 37.767 56.4643 39.2835C55.8312 40.8001 54.9034 42.1781 53.7338 43.3388C52.5641 44.4996 51.1755 45.4203 49.6473 46.0485C48.119 46.6767 46.4811 47 44.8269 47C43.1728 47 41.5348 46.6767 40.0066 46.0485C38.4783 45.4203 37.0898 44.4996 35.9201 43.3388C34.7504 42.1781 33.8226 40.8001 33.1896 39.2835C32.5566 37.767 32.2308 36.1415 32.2308 34.5C32.2308 31.1848 33.5579 28.0054 35.9201 25.6612C38.2823 23.317 41.4862 22 44.8269 22C48.1676 22 51.3715 23.317 53.7337 25.6612C56.096 28.0054 57.4231 31.1848 57.4231 34.5ZM66.1161 76.74C59.5614 80.2047 52.2467 82.0114 44.8202 82C37.3982 82.0092 30.0884 80.2025 23.5377 76.74C25.1385 72.415 28.0384 68.6817 31.8456 66.0445C35.6528 63.4072 40.1839 61.9931 44.8269 61.9931C49.4699 61.9931 54.001 63.4072 57.8082 66.0445C61.6155 68.6817 64.5153 72.415 66.1161 76.74Z" stroke="url(#paint0_linear_87_119)" stroke-width="4" stroke-linecap="round" stroke-linejoin="round"/>
<defs>
<linearGradient id="paint0_linear_87_119" x1="-23.3683" y1="52.5747" x2="254.227" y2="52.5747" gradientUnits="userSpaceOnUse">
<stop stop-color="#735CDD"/>
<stop offset="1" stop-color="#00A7E1"/>
</linearGradient>
</defs>
</svg>
