<svg width="136" height="104" viewBox="0 0 136 104" fill="none" xmlns="http://www.w3.org/2000/svg">
<path d="M9.59109 102H125.988M9.59109 102C7.57781 102 5.64699 101.21 4.22338 99.8033C2.79977 98.3968 2 96.4891 2 94.5M9.59109 102H19.7126C23.9028 102 27.3036 98.64 27.3036 94.5M125.988 102C130.178 102 133.579 98.64 133.579 94.5M125.988 102H115.866C113.853 102 111.922 101.21 110.499 99.8033C109.075 98.3968 108.275 96.4891 108.275 94.5M2 94.5V9.5M2 94.5V84.5C2 80.36 5.40081 77 9.59109 77M27.3036 94.5V59.5M27.3036 94.5C27.3036 98.64 30.7045 102 34.8947 102H100.684C104.874 102 108.275 98.64 108.275 94.5M27.3036 94.5V84.5C27.3036 80.36 23.9028 77 19.7126 77M2 9.5C2 5.36 5.40081 2 9.59109 2M2 9.5V19.5C2 23.64 5.40081 27 9.59109 27M9.59109 77C5.40081 77 2 73.64 2 69.5V59.5C2 55.36 5.40081 52 9.59109 52M9.59109 77H19.7126M133.579 94.5V9.5M133.579 94.5V84.5C133.579 80.36 130.178 77 125.988 77M133.579 9.5C133.579 5.36 130.178 2 125.988 2M133.579 9.5V19.5C133.579 23.64 130.178 27 125.988 27M125.988 77C130.178 77 133.579 73.64 133.579 69.5V59.5C133.579 55.36 130.178 52 125.988 52M125.988 77H115.866M108.275 94.5V59.5M108.275 94.5V84.5C108.275 80.36 111.676 77 115.866 77M125.988 2H9.59109M125.988 2H115.866C111.676 2 108.275 5.36 108.275 9.5M9.59109 2H19.7126C23.9028 2 27.3036 5.36 27.3036 9.5M108.275 9.5C108.275 5.36 104.874 2 100.684 2H34.8947C30.7045 2 27.3036 5.36 27.3036 9.5M108.275 9.5V19.5C108.275 21.4891 109.075 23.3968 110.499 24.8033C111.922 26.2098 113.853 27 115.866 27M108.275 9.5V44.5M125.988 27H115.866M125.988 27C130.178 27 133.579 30.36 133.579 34.5V44.5C133.579 48.64 130.178 52 125.988 52M27.3036 9.5V19.5C27.3036 23.64 23.9028 27 19.7126 27M27.3036 9.5V44.5M9.59109 27H19.7126M9.59109 27C5.40081 27 2 30.36 2 34.5V44.5C2 48.64 5.40081 52 9.59109 52M19.7126 27C23.9028 27 27.3036 30.36 27.3036 34.5V44.5M9.59109 52H19.7126M27.3036 44.5C27.3036 46.4891 28.1034 48.3968 29.527 49.8033C30.9506 51.2098 32.8815 52 34.8947 52M27.3036 44.5C27.3036 48.64 23.9028 52 19.7126 52M115.866 27C111.676 27 108.275 30.36 108.275 34.5V44.5M108.275 44.5C108.275 48.64 104.874 52 100.684 52M108.275 44.5C108.275 48.64 111.676 52 115.866 52M125.988 52H115.866M34.8947 52H100.684M34.8947 52C30.7045 52 27.3036 55.36 27.3036 59.5M100.684 52C104.874 52 108.275 55.36 108.275 59.5M27.3036 59.5V69.5C27.3036 73.64 23.9028 77 19.7126 77M27.3036 59.5C27.3036 55.36 23.9028 52 19.7126 52M115.866 52C111.676 52 108.275 55.36 108.275 59.5M108.275 59.5V69.5C108.275 73.64 111.676 77 115.866 77" stroke="url(#paint0_linear_87_117)" stroke-width="4" stroke-linecap="round" stroke-linejoin="round"/>
<defs>
<linearGradient id="paint0_linear_87_117" x1="-23.4804" y1="52.5747" x2="255.342" y2="52.5747" gradientUnits="userSpaceOnUse">
<stop stop-color="#735CDD"/>
<stop offset="1" stop-color="#00A7E1"/>
</linearGradient>
</defs>
</svg>
