<svg width="137" height="106" viewBox="0 0 136 105" fill="none" xmlns="http://www.w3.org/2000/svg">
<path d="M2.5 30.2667V89.3577C2.5 92.9742 3.93668 96.4427 6.494 99C9.05131 101.557 12.5198 102.994 16.1364 102.994H120.5C124.117 102.994 127.585 101.557 130.142 99C132.7 96.4427 134.136 92.9742 134.136 89.3577V30.2667M2.5 30.2667V16.6304C2.5 13.0138 3.93668 9.54533 6.494 6.98802C9.05131 4.4307 12.5198 2.99402 16.1364 2.99402H120.5C124.117 2.99402 127.585 4.4307 130.142 6.98802C132.7 9.54533 134.136 13.0138 134.136 16.6304V30.2667M2.5 30.2667H134.136M61.8234 77.2384C61.1926 75.5849 60.0075 74.2026 58.471 73.3283C56.9345 72.4539 55.1423 72.1418 53.4012 72.4456C51.6602 72.7493 50.0788 73.6499 48.9277 74.9931C47.7767 76.3363 47.1277 78.0385 47.0919 79.8082C47.076 80.5917 46.8996 81.3635 46.5737 82.0759C46.2477 82.7883 45.7792 83.426 45.1971 83.9496C44.615 84.4732 43.9317 84.8714 43.1897 85.1197C42.4476 85.3679 41.6626 85.4609 40.8832 85.3928C42.094 87.6024 43.9992 89.3498 46.3031 90.3637C48.607 91.3776 51.1807 91.6013 53.6246 91C56.0686 90.3987 58.246 89.0062 59.8189 87.0385C61.3919 85.0708 62.2723 82.6381 62.3235 80.118C62.3442 79.1034 62.1659 78.1306 61.8234 77.2384ZM61.8234 77.2384C64.8627 76.2696 67.7777 74.9457 70.5079 73.294M57.707 72.9701C58.7973 69.9613 60.2383 67.0918 62.0002 64.4213M70.5054 73.294C75.3814 70.3453 79.5838 66.4024 82.8396 61.7212L92.9798 47.1378C93.3682 46.5824 93.5521 45.9092 93.5 45.2331C93.4479 44.5571 93.1632 43.9201 92.6943 43.431C92.2255 42.9419 91.6016 42.631 90.9294 42.5514C90.2571 42.4718 89.5781 42.6285 89.0082 42.9946L74.0483 52.5527C69.2458 55.6199 65.1408 59.6644 62.0001 64.4238C65.8284 66.2326 68.8566 69.3916 70.5053 73.2965M16.1364 16.6304H16.1848V16.6789H16.1364V16.6304ZM29.7727 16.6304H29.8212V16.6789H29.7727V16.6304ZM43.4091 16.6304H43.4576V16.6789H43.4091V16.6304Z" stroke="url(#paint0_linear_187_237)" stroke-width="4" stroke-linecap="round" stroke-linejoin="round"/>
<defs>
<linearGradient id="paint0_linear_187_237" x1="-22.9915" y1="53.5688" x2="255.952" y2="53.5687" gradientUnits="userSpaceOnUse">
<stop stop-color="#735CDD"/>
<stop offset="1" stop-color="#00A7E1"/>
</linearGradient>
</defs>
</svg>
